<svg width="102" height="50" xmlns="http://www.w3.org/2000/svg"><g fill="#000" fill-rule="evenodd"><path d="M5.203 44.271v2.332c0 .462.011.924.088 1.397h-.363l-.088-.891h-.022a2.245 2.245 0 0 1-1.903 1.023c-1.188 0-1.705-.825-1.705-1.584 0-1.331 1.166-2.167 3.608-2.134 0-.671 0-2.112-1.584-2.112a2.54 2.54 0 0 0-1.452.473l-.154-.286a2.958 2.958 0 0 1 1.64-.517c1.66 0 1.935 1.298 1.935 2.299zm-.396 1.903v-1.419c-1.144-.022-3.2.154-3.2 1.727 0 .913.637 1.331 1.286 1.331 1.397 0 1.914-1.155 1.914-1.639zm9.475-4.169v.341c-.099-.011-.154-.022-.253-.022-.957 0-1.639 1.056-1.639 2.376V48h-.385v-4.158c0-.539-.01-1.166-.044-1.738h.363l.022 1.232h.033c.242-.726.847-1.364 1.683-1.364.077 0 .143.011.22.033zm9.86 5.412l.154.286a3.802 3.802 0 0 1-1.738.418c-1.672 0-2.783-1.254-2.783-3.003 0-1.903 1.287-3.146 2.981-3.146.495 0 1.21.143 1.562.429l-.176.286a2.642 2.642 0 0 0-1.397-.396c-1.672 0-2.574 1.331-2.574 2.783 0 1.617 1.023 2.728 2.453 2.728.748 0 1.2-.242 1.518-.385zm10.927-2.992V48h-.385v-3.531c0-1.089-.429-2.167-1.716-2.167-1.012 0-2.002.946-2.002 2.09V48h-.385v-8.745h.385v3.96h.022a2.34 2.34 0 0 1 2.046-1.243c.528 0 2.035.187 2.035 2.453zm7.407-4.015c0 .264-.165.44-.396.44-.23 0-.385-.209-.385-.44s.165-.44.396-.44.385.198.385.44zm-.198 1.694V48h-.385v-5.896h.385zm7.089 0v-1.078l.385-.176v1.254h1.737v.341h-1.737v4.059c0 .748.285 1.298.923 1.298.309 0 .507-.055.65-.11l.087.286a1.895 1.895 0 0 1-.758.143c-1.2 0-1.288-1.056-1.288-1.749v-3.927h-1.023v-.341h1.023zm12.148 5.324l.132.297c-.165.099-.76.396-1.826.396-1.65 0-2.684-1.243-2.684-2.959 0-2.046 1.155-3.19 2.596-3.19 1.749 0 2.244 1.529 2.244 2.739 0 .077 0 .132-.011.187h-4.433c-.011 1.848.858 2.904 2.343 2.904.88 0 1.32-.22 1.639-.374zm-3.938-2.871h3.97c.012-.66-.274-2.277-1.858-2.277-1.375 0-2.002 1.298-2.112 2.277zm14.634 2.86l.154.286a3.802 3.802 0 0 1-1.738.418c-1.672 0-2.783-1.254-2.783-3.003 0-1.903 1.287-3.146 2.98-3.146.496 0 1.21.143 1.563.429l-.176.286a2.642 2.642 0 0 0-1.397-.396c-1.672 0-2.574 1.331-2.574 2.783 0 1.617 1.023 2.728 2.453 2.728.748 0 1.199-.242 1.518-.385zm6.659-5.313v-1.078l.385-.176v1.254h1.738v.341h-1.738v4.059c0 .748.286 1.298.924 1.298.308 0 .506-.055.649-.11l.088.286a1.895 1.895 0 0 1-.76.143c-1.198 0-1.286-1.056-1.286-1.749v-3.927h-1.023v-.341h1.023zm12.148 5.324l.132.297c-.165.099-.76.396-1.826.396-1.65 0-2.684-1.243-2.684-2.959 0-2.046 1.155-3.19 2.596-3.19 1.749 0 2.244 1.529 2.244 2.739 0 .077 0 .132-.011.187h-4.433c-.011 1.848.858 2.904 2.343 2.904.88 0 1.32-.22 1.639-.374zm-3.938-2.871h3.97c.012-.66-.274-2.277-1.858-2.277-1.375 0-2.002 1.298-2.112 2.277zm13.446-2.189l-.198.297a1.887 1.887 0 0 0-1.09-.374c-.802 0-1.286.55-1.286 1.122 0 .671.44.99 1.254 1.331.935.374 1.507.825 1.507 1.727 0 1.023-.814 1.65-1.903 1.65a2.61 2.61 0 0 1-1.441-.418l.187-.319c.33.209.869.418 1.276.418.748 0 1.485-.462 1.485-1.265 0-.704-.43-1.1-1.298-1.452-.946-.374-1.463-.869-1.463-1.573 0-.814.627-1.54 1.716-1.54a2.1 2.1 0 0 1 1.254.396zM70.962 22.064h1.045c-.9 7.305-4.554 11.045-10.962 11.221-3.824-.098-6.747-1.64-8.77-4.629-2.09-2.93-3.135-6.552-3.135-10.869 0-4.629 1.028-8.564 3.085-11.807C54.247 2.738 57.4 1.078 61.683 1c2.583 0 4.826.84 6.73 2.52 1.886 1.718 3.017 4.238 3.39 7.558h-1.045c-.442-3.008-1.487-5.244-3.135-6.709-1.666-1.445-3.646-2.168-5.94-2.168-2.125 0-3.918.46-5.38 1.377A10.658 10.658 0 0 0 52.76 7.24c-1.75 3.203-2.609 6.719-2.575 10.547 0 3.887.927 7.207 2.78 9.961 1.852 2.852 4.545 4.297 8.08 4.336 2.72 0 5.006-.908 6.858-2.725 1.768-1.797 2.787-4.228 3.06-7.295zm5.87-4.921c0-4.375 1.046-8.135 3.136-11.28C82.025 2.7 85.016 1.078 88.942 1c3.943.078 6.942 1.7 8.999 4.863C99.98 9.008 101 12.768 101 17.143c0 4.316-1.02 8.056-3.06 11.22-2.056 3.184-5.072 4.824-9.05 4.922-3.891-.098-6.865-1.738-8.922-4.922-2.09-3.164-3.136-6.904-3.136-11.22zm1.046 0c0 4.043.96 7.5 2.88 10.37 1.836 2.97 4.564 4.493 8.184 4.571 3.62-.078 6.373-1.602 8.26-4.57 1.852-2.871 2.778-6.328 2.778-10.371 0-4.004-.926-7.471-2.778-10.4-1.887-2.95-4.64-4.464-8.26-4.542-3.62.078-6.348 1.592-8.184 4.541-1.92 2.93-2.88 6.397-2.88 10.4zM23.028 16.176h19.936c0-3.926-.765-7.227-2.294-9.903-1.53-2.675-4.054-4.033-7.572-4.072-3.552.04-6.093 1.358-7.622 3.955-1.53 2.598-2.346 5.938-2.448 10.02zm-1.045.967c0-4.004-.714-7.471-2.141-10.4-1.496-2.95-4.105-4.464-7.827-4.542-3.586.078-6.144 1.592-7.673 4.541-1.58 2.969-2.354 6.436-2.32 10.4-.034 3.868.74 7.266 2.32 10.196.799 1.406 1.835 2.549 3.11 3.428 1.258.879 2.779 1.318 4.563 1.318 3.756-.078 6.382-1.602 7.878-4.57 1.427-2.871 2.124-6.328 2.09-10.371zm22.026.234H23.03c-.103 9.727 3.237 14.629 10.018 14.707 3.06-.04 5.32-1.045 6.781-3.018 1.462-1.875 2.388-4.17 2.78-6.884h1.044c-.459 3.359-1.572 6.015-3.34 7.968-1.784 2.051-4.206 3.096-7.265 3.135-6.016-.098-9.517-3.486-10.503-10.166h-.102c-1.07 6.602-4.546 9.99-10.427 10.166-3.909-.098-6.73-1.797-8.463-5.097-1.751-3.165-2.6-6.846-2.55-11.045-.05-4.16.782-7.862 2.499-11.104C5.2 2.758 8.038 1.08 12.015 1c2.957.04 5.32 1.016 7.087 2.93 1.819 1.914 2.915 4.453 3.289 7.617h.102c.459-3.067 1.538-5.567 3.238-7.5 1.682-1.914 4.121-2.93 7.316-3.047 3.858.078 6.662 1.621 8.413 4.629 1.7 2.988 2.55 6.601 2.55 10.84v.908z"/></g></svg>